<svg version="1.1" xmlns="http://www.w3.org/2000/svg" xmlns:xlink="http://www.w3.org/1999/xlink" width="152.37748" height="307.67468" viewBox="0,0,152.37748,307.67468"><g transform="translate(-161.17204,-25.33794)"><g data-paper-data="{&quot;isPaintingLayer&quot;:true}" fill-rule="nonzero" stroke-width="5" stroke-linecap="round" stroke-linejoin="miter" stroke-miterlimit="10" stroke-dasharray="" stroke-dashoffset="0" style="mix-blend-mode: normal"><path d="M186.73611,28.09953l110.91667,8.83333l-51.75,-1.08333z" fill="none" stroke="#b4d4e1"/><path d="M251.90825,113.0801l26.14286,-7.71429l-34.57143,5.57143z" fill="none" stroke="#b4d4e1"/><path d="M255.72817,228.37288l-1,-111.5l14.33333,-4.33333l1.16667,111.58333z" fill="#ffa7a4" stroke="#f48686"/><path d="M185.76042,98.13715l3,-70l54.25,6.41667l-4.44098,75.29572z" fill="#7bd4ff" stroke="#5bbcf4"/><path d="M255.85417,227.71875l13.78572,-3.72857z" fill="#ffa7a4" stroke="#f48686"/><path d="M196.9875,106.42985l-9.13334,96.9l13.4,-0.23333z" fill="#ffa7a4" stroke="#f48686"/><path d="M247.90278,34.84953l47.33334,2.00001l-6,68.66666l-45.66667,4.66667z" fill="#ffa7a4" stroke="#f48686"/><path d="M172.85417,99.66319l-9,98.5l19,5l10.5,-98.5z" fill="#7bd4ff" stroke="#5bbcf4"/><path d="M254.40417,123.6743l11,92.5l22.4,5.9l-8.2,-94z" fill="#7bd4ff" stroke="#5bbcf4"/><path d="M226.86845,222.21875l-26.62857,-9.15715l-0.27976,-1.82918" fill="none" stroke="#b4d4e1"/><path d="M228.47322,224.97668l22.38095,7.69048l-8,96.85714l-22.5,-8.33333z" fill="#7bd4ff" stroke="#5bbcf4"/><path d="M221.11607,296.0124l-9.83334,-5l-10.5,-74l23.54762,8.14285l1.95238,11.35715z" fill="#7bd4ff" stroke="#5bbcf4"/><path d="M277.55417,108.61319l-18.4,11.05l22,3.65l18.15,-10.05z" fill="#ecf8fd" stroke="#b4d4e1"/><path d="M284.55417,127.01319l8.2,93.5l18.2,-13.5l-6.75,-90.65z" fill="#ffa7a4" stroke="#f48686"/><path d="M255.85417,232.71875l13.83334,-3.75l-7.83333,92.95556l-13.85,6.85z" fill="#ffa7a4" stroke="#f48686"/><path d="M192.57871,55.78318l12.97222,3.11111l-0.94444,16.58333l-12.58334,-3.19444z" fill="#cdefff" stroke="#cdefff"/><path d="M224.38426,62.47762l11.80556,2.86111l-1.11111,17.22222l-11.55556,-2.83333z" fill="#cdefff" stroke="#cdefff"/><path d="M198.02083,105.60763l51.83334,11.83334l1,110.5l-51,-18z" fill="#7bd4ff" stroke="#5bbcf4"/></g></g></svg>